<?xml version="1.0" encoding="utf-8"?>
<!-- Generator: Adobe Illustrator 23.0.4, SVG Export Plug-In . SVG Version: 6.00 Build 0)  -->
<svg version="1.1" xmlns="http://www.w3.org/2000/svg" xmlns:xlink="http://www.w3.org/1999/xlink" x="0px" y="0px"
	 viewBox="0 0 100 100" style="enable-background:new 0 0 100 100;" xml:space="preserve">
<style type="text/css">
	.st0{display:none;}
	.st1{display:inline;fill:#5B6F6D;}
	.st2{display:inline;}
	.st3{fill:#5B6F6D;}
	.st4{fill:#A20000;}
</style>
<g id="Calque_1" class="st0">
	<path class="st1" d="M50,0C22.4,0,0,22.4,0,50c0,27.6,22.4,50,50,50s50-22.4,50-50C100,22.4,77.6,0,50,0z M50,93.6
		C25.9,93.6,6.4,74.1,6.4,50C6.4,25.9,25.9,6.4,50,6.4c24.1,0,43.6,19.6,43.6,43.6C93.6,74.1,74.1,93.6,50,93.6z"/>
	<path class="st1" d="M50,9C27.4,9,9,27.4,9,50c0,22.6,18.4,41,41,41c22.6,0,41-18.4,41-41C91,27.4,72.6,9,50,9z M40,65.6l-6.9,3.8
		l0.1-7.9c-7.1-6.4-8.9-17.1-3.8-25.6c5.8-9.6,18.3-12.7,27.9-6.9c4.7,2.8,7.9,7.3,9.2,12.2c-3.1-1.4-6.7-1.8-10.2-0.9
		C47.9,42.5,42.7,51,44.8,59.5c0.7,2.8,2.1,5.2,3.9,7.2C45.8,67,42.9,66.6,40,65.6z M66.2,68.7L64.7,74l-3.8-3.9
		c-6.6,0.3-12.7-4-14.4-10.7c-1.9-7.6,2.7-15.2,10.3-17.1C64.4,40.4,72,45,73.9,52.6C75.5,59.2,72.2,65.9,66.2,68.7z"/>
</g>
<g id="Calque_2" class="st0">
	<path class="st1" d="M50,0C22.4,0,0,22.4,0,50c0,27.6,22.4,50,50,50s50-22.4,50-50C100,22.4,77.6,0,50,0z M50,93.6
		C25.9,93.6,6.4,74.1,6.4,50C6.4,25.9,25.9,6.4,50,6.4c24.1,0,43.6,19.6,43.6,43.6C93.6,74.1,74.1,93.6,50,93.6z"/>
	<path class="st1" d="M50,9C27.4,9,9,27.4,9,50c0,22.6,18.4,41,41,41c22.6,0,41-18.4,41-41C91,27.4,72.6,9,50,9z M36.5,55.8
		C35.3,57.9,32.4,60,29,60c-4.8,0-8.7-4.4-8.7-9.8s3.9-9.8,8.7-9.8c3.4,0,6.4,2.2,7.5,4.3l0.6,1.3h-2l-0.3-0.4
		c-0.8-1.6-3.2-3.3-5.8-3.3c-3.8,0-6.9,3.6-6.9,8s3.1,8,6.9,8c2.7,0,5-1.7,5.9-3.3l0.3-0.5h2.1L36.5,55.8z M49.5,60
		c-4.8,0-8.7-4.4-8.7-9.8c0-5.4,3.9-9.9,8.8-9.8c3.4,0,6.4,2.2,7.4,4.2l0.6,1.3h-2l-0.3-0.4c-0.8-1.6-3.2-3.3-5.8-3.3c0,0,0,0-0.1,0
		c-3.8,0-6.9,3.6-6.9,8s3.1,8,6.9,8c3.5,0,6.5-3.2,6.8-7h-7.7v-1.8h8.7c0.5,0,0.9,0.4,0.9,0.9C58.1,55.6,54.2,60,49.5,60z
		 M71.3,59.5c-0.1,0.3-0.5,0.5-0.8,0.5l0,0l0,0c-0.4,0-0.7-0.2-0.8-0.5l-8.4-19h2l0.2,0.6l7,15.8l7.1-16.4h2L79,41.7L71.3,59.5z"/>
</g>
<g id="Calque_3" class="st0">
	<g class="st2">
		<path class="st3" d="M50,0C22.4,0,0,22.4,0,50s22.4,50,50,50s50-22.4,50-50S77.6,0,50,0z M50,93.6C25.9,93.6,6.4,74.1,6.4,50
			S25.9,6.4,50,6.4c24.1,0,43.6,19.6,43.6,43.6S74.1,93.6,50,93.6z"/>
		<path class="st3" d="M50,9C27.4,9,9,27.4,9,50s18.4,41,41,41c22.6,0,41-18.4,41-41S72.6,9,50,9z M67.9,57.6
			c-0.1,2-0.4,3.3-0.9,4.5c-0.5,1.2-1.1,2.2-2.1,3.3c-1,1-2.1,1.7-3.3,2.1c-1.2,0.5-2.5,0.8-4.5,0.9c-2,0.1-2.6,0.1-7.6,0.1
			c-5,0-5.7,0-7.6-0.1c-2-0.1-3.3-0.4-4.5-0.9c-1.2-0.5-2.3-1.1-3.3-2.1c-1-1-1.7-2.1-2.1-3.3c-0.5-1.2-0.8-2.5-0.9-4.5
			C31,55.7,31,55,31,50c0-5,0-5.7,0.1-7.6c0.1-2,0.4-3.3,0.9-4.5c0.5-1.2,1.1-2.3,2.1-3.3c1-1,2.1-1.7,3.3-2.1
			c1.2-0.5,2.5-0.8,4.5-0.9c2-0.1,2.6-0.1,7.6-0.1c5,0,5.7,0,7.6,0.1c2,0.1,3.3,0.4,4.5,0.9c1.2,0.5,2.3,1.1,3.3,2.1
			c1,1,1.7,2.1,2.1,3.3c0.5,1.2,0.8,2.5,0.9,4.5C68,44.3,68,45,68,50C68,55,68,55.7,67.9,57.6z"/>
		<path class="st3" d="M49.5,43.8c-3.4,0-6.2,2.8-6.2,6.2c0,3.4,2.8,6.2,6.2,6.2c3.4,0,6.2-2.8,6.2-6.2
			C55.7,46.6,52.9,43.8,49.5,43.8z"/>
		<path class="st3" d="M63.9,39.1c-0.3-0.9-0.7-1.5-1.4-2.1c-0.6-0.6-1.3-1-2.1-1.4c-0.7-0.3-1.6-0.6-3.4-0.6
			c-2-0.1-2.5-0.1-7.5-0.1c-4.9,0-5.5,0-7.5,0.1c-1.8,0.1-2.8,0.4-3.4,0.6c-0.9,0.3-1.5,0.7-2.1,1.4c-0.6,0.6-1,1.3-1.4,2.1
			c-0.3,0.7-0.6,1.6-0.6,3.4c-0.1,2-0.1,2.5-0.1,7.5c0,4.9,0,5.5,0.1,7.5c0.1,1.8,0.4,2.8,0.6,3.4c0.3,0.9,0.7,1.5,1.4,2.1
			c0.6,0.6,1.3,1,2.1,1.4c0.7,0.3,1.6,0.6,3.4,0.6c2,0.1,2.5,0.1,7.5,0.1c4.9,0,5.5,0,7.5-0.1c1.8-0.1,2.8-0.4,3.4-0.6
			c0.9-0.3,1.5-0.7,2.1-1.4c0.6-0.6,1-1.3,1.4-2.1c0.3-0.7,0.6-1.6,0.6-3.4c0.1-2,0.1-2.5,0.1-7.5c0-4.9,0-5.5-0.1-7.5
			C64.5,40.7,64.2,39.7,63.9,39.1z M49.5,59.5c-5.3,0-9.5-4.3-9.5-9.5c0-5.3,4.3-9.5,9.5-9.5c5.3,0,9.5,4.3,9.5,9.5
			C59,55.3,54.8,59.5,49.5,59.5z M59.4,42.3c-1.2,0-2.2-1-2.2-2.2c0-1.2,1-2.2,2.2-2.2c1.2,0,2.2,1,2.2,2.2
			C61.6,41.3,60.6,42.3,59.4,42.3z"/>
	</g>
</g>
<g id="Calque_3_-_copie">
	<g>
		<path class="st4" d="M50,0C22.4,0,0,22.4,0,50s22.4,50,50,50s50-22.4,50-50S77.6,0,50,0z M50,93.6C25.9,93.6,6.4,74.1,6.4,50
			S25.9,6.4,50,6.4c24.1,0,43.6,19.6,43.6,43.6S74.1,93.6,50,93.6z"/>
		<g>
			<path class="st4" d="M50,9C27.4,9,9,27.4,9,50s18.4,41,41,41c22.6,0,41-18.4,41-41S72.6,9,50,9z M63.5,49.7L52.3,38.6v30.7v1.1
				h-4.5v-1.1V38.6L36.6,49.7l-3.2-3.2l11.2-11.2l2.2-2.2l3.2-3.2l3.2,3.2l2.2,2.2l11.2,11.2L63.5,49.7z"/>
			<polygon class="st0" points="53.2,33.2 50.1,30 46.9,33.2 44.7,35.4 33.5,46.6 36.6,49.7 47.8,38.6 47.8,69.3 47.8,70.4 
				52.3,70.4 52.3,69.3 52.3,38.6 63.5,49.7 66.6,46.6 55.5,35.4 			"/>
		</g>
	</g>
</g>
</svg>
